<?xml version="1.0" standalone="no"?>
<!DOCTYPE svg PUBLIC "-//W3C//DTD SVG 20010904//EN"
 "http://www.w3.org/TR/2001/REC-SVG-20010904/DTD/svg10.dtd">
<svg version="1.0" xmlns="http://www.w3.org/2000/svg"
 width="34.000000pt" height="34.000000pt" viewBox="0 0 34.000000 34.000000"
 preserveAspectRatio="xMidYMid meet">

<g transform="translate(0.000000,34.000000) scale(0.100000,-0.100000)"
fill="#000000" stroke="none">
<path d="M105 316 c-101 -44 -125 -178 -46 -257 65 -65 157 -65 222 0 124 124
-15 327 -176 257z m57 -63 c-5 -26 -4 -27 12 -10 21 21 32 22 39 3 8 -19 -15
-60 -36 -64 -55 -11 -65 83 -11 98 1 0 -1 -12 -4 -27z m-50 -92 c11 6 21 4 32
-7 13 -13 16 -13 16 -1 0 18 82 16 88 -2 3 -8 9 -6 17 6 13 17 14 16 24 -10 6
-16 11 -31 11 -35 0 -12 -65 -10 -72 2 -6 8 -8 7 -8 -1 0 -19 -18 -16 -22 4
-3 15 -4 15 -20 -1 -17 -17 -18 -17 -18 0 0 16 -1 16 -14 -2 -13 -16 -18 -17
-35 -7 -13 8 -22 9 -26 3 -10 -16 -34 -11 -45 9 -13 26 13 56 38 42 10 -6 23
-6 34 0z"/>
<path d="M170 200 c-23 -7 -23 -8 -3 -9 12 -1 25 4 28 9 3 6 5 10 3 9 -2 -1
-14 -5 -28 -9z"/>
<path d="M50 136 c0 -8 4 -17 8 -20 13 -8 35 11 28 23 -10 16 -36 14 -36 -3z"/>
<path d="M112 136 c1 -10 8 -17 13 -17 15 1 12 24 -3 29 -9 3 -13 -2 -10 -12z"/>
<path d="M170 139 c0 -5 5 -7 10 -4 6 3 10 8 10 11 0 2 -4 4 -10 4 -5 0 -10
-5 -10 -11z"/>
</g>
</svg>
