<?xml version="1.0" standalone="no"?>
<!DOCTYPE svg PUBLIC "-//W3C//DTD SVG 20010904//EN"
 "http://www.w3.org/TR/2001/REC-SVG-20010904/DTD/svg10.dtd">
<svg version="1.0" xmlns="http://www.w3.org/2000/svg"
 width="4725.000000pt" height="4317.000000pt" viewBox="0 0 4725.000000 4317.000000"
 preserveAspectRatio="xMidYMid meet">

<g transform="translate(0.000000,4317.000000) scale(0.100000,-0.100000)"
fill="#000000" stroke="none">
<path d="M22970 42034 c-47 -2 -209 -8 -360 -14 -2723 -105 -5466 -687 -7965
-1690 -1665 -669 -3264 -1534 -4675 -2530 -1098 -775 -2021 -1557 -2970 -2516
-556 -562 -981 -1038 -1455 -1629 -2303 -2875 -3733 -6225 -4169 -9765 -92
-744 -126 -1285 -133 -2117 -6 -638 1 -939 33 -1418 241 -3700 1565 -7239
3854 -10300 607 -811 1216 -1513 1964 -2260 394 -394 648 -633 1021 -960 3145
-2760 7091 -4621 11345 -5349 2510 -430 5101 -468 7615 -111 2305 327 4501
970 6610 1935 269 123 1007 491 1275 635 1599 864 3062 1890 4355 3055 609
548 1260 1207 1785 1805 1922 2192 3326 4711 4129 7410 993 3341 1038 6915
130 10280 -641 2378 -1747 4630 -3264 6650 -1746 2324 -4011 4308 -6621 5797
-2644 1510 -5582 2491 -8659 2892 -691 91 -1331 146 -2145 187 -203 10 -1517
20 -1700 13z m125 -7174 c214 -12 380 -35 465 -63 101 -34 94 -47 -57 -98
-245 -83 -526 -240 -766 -428 -541 -424 -1037 -1113 -1172 -1629 -51 -192 -69
-355 -68 -622 0 -262 9 -357 59 -578 318 -1428 1918 -2623 3834 -2864 68 -8
217 -13 425 -13 273 1 344 4 485 23 717 97 1373 346 1984 755 270 181 452 331
696 576 191 192 330 359 473 566 72 105 86 120 113 123 40 4 49 -16 74 -171
80 -499 87 -1114 19 -1677 -214 -1779 -1186 -3377 -2664 -4382 -1399 -952
-3149 -1268 -4794 -867 -1414 345 -2655 1192 -3515 2399 -671 942 -1062 2054
-1137 3235 -13 211 -7 706 11 870 46 432 127 798 260 1189 208 608 521 1158
964 1691 129 155 516 541 675 674 941 783 2053 1235 3176 1290 223 12 274 12
460 1z m4690 -1730 c571 -122 944 -477 1072 -1020 31 -131 42 -387 23 -536
-14 -114 -57 -294 -98 -414 -252 -726 -875 -1274 -1781 -1564 -1243 -400
-2442 -228 -3496 501 -476 329 -950 848 -1183 1297 -35 67 -33 85 6 60 185
-122 469 -271 662 -347 491 -195 973 -235 1440 -121 402 99 823 348 1166 689
130 131 218 237 389 474 77 107 185 251 241 320 118 147 336 361 450 443 157
112 328 189 506 228 129 28 453 23 603 -10z m14300 -11625 c185 -39 370 -184
453 -355 61 -125 75 -191 69 -330 -8 -191 -62 -314 -197 -450 -127 -128 -285
-194 -465 -194 -124 0 -185 14 -304 71 -170 81 -301 240 -352 427 -31 116 -24
288 16 396 39 105 93 186 179 268 160 152 381 213 601 167z m-32695 -580 c91
-8 212 -21 270 -30 1143 -169 2133 -782 2745 -1700 125 -187 259 -432 281
-511 23 -87 15 -170 -25 -257 -151 -335 -517 -523 -975 -504 -279 12 -529 90
-751 235 -47 31 -181 155 -410 382 -187 185 -383 369 -435 409 -382 294 -1080
401 -1661 255 -362 -90 -697 -283 -970 -557 -433 -435 -672 -1022 -696 -1712
-23 -654 171 -1271 543 -1731 95 -118 308 -323 410 -395 289 -206 688 -352
1058 -388 478 -47 1007 77 1311 306 51 38 240 216 435 408 190 188 373 360
407 383 139 94 334 175 511 212 142 31 378 38 513 16 341 -56 591 -230 712
-495 38 -85 46 -174 22 -257 -29 -101 -206 -409 -353 -614 -178 -248 -442
-532 -662 -712 -601 -490 -1310 -793 -2085 -892 -325 -42 -815 -46 -1120 -11
-833 97 -1560 395 -2147 883 -618 513 -1078 1301 -1262 2162 -80 375 -101 593
-101 1030 0 512 45 865 165 1289 271 960 847 1739 1642 2221 538 326 1169 525
1843 579 172 14 608 12 785 -4z m8230 -9 c309 -38 608 -103 860 -186 1201
-399 2032 -1244 2424 -2467 289 -904 283 -2006 -17 -2898 -399 -1187 -1200
-1999 -2364 -2398 -451 -155 -905 -227 -1429 -227 -1005 0 -1896 297 -2619
874 -128 102 -418 392 -519 519 -473 594 -769 1331 -861 2138 -104 917 46
1831 424 2589 186 372 377 642 656 929 294 301 591 518 976 710 496 248 1013
388 1614 435 131 10 726 -3 855 -18z m6626 14 c1286 -73 2172 -369 2799 -936
286 -258 513 -614 650 -1018 250 -742 212 -1485 -109 -2125 -227 -452 -592
-829 -1060 -1097 -425 -242 -1042 -387 -1851 -435 -203 -12 -987 -7 -1032 7
l-23 6 0 -656 c0 -401 -4 -694 -11 -753 -58 -524 -365 -830 -949 -947 -173
-35 -317 -49 -510 -50 -160 -1 -167 0 -220 26 -63 31 -90 62 -116 134 -17 45
-19 116 -25 894 -3 465 -10 2008 -14 3430 -5 1964 -4 2605 5 2669 52 372 269
614 660 739 185 59 406 88 865 115 134 8 784 6 941 -3z m6974 -14 c975 -85
1690 -298 2245 -669 525 -350 864 -836 1035 -1481 119 -448 131 -909 35 -1336
-68 -304 -198 -604 -376 -865 -271 -399 -699 -749 -1147 -937 -109 -46 -122
-54 -117 -72 14 -50 171 -352 243 -466 227 -361 495 -692 861 -1063 440 -447
851 -775 1283 -1026 116 -67 158 -107 158 -149 0 -49 -52 -132 -122 -197 -318
-295 -1148 -321 -1898 -60 -426 149 -718 336 -1063 680 -553 552 -944 1222
-1182 2021 -2 8 -122 13 -387 17 -210 3 -393 9 -405 13 l-23 6 0 -668 c0 -796
-5 -851 -89 -1070 -162 -421 -652 -661 -1361 -667 -126 -2 -186 2 -214 12 -59
20 -112 75 -138 139 l-22 57 -7 1205 c-4 663 -8 2224 -10 3470 -4 2166 -3
2268 14 2345 95 413 404 651 947 729 97 14 398 41 550 50 175 10 1015 -3 1190
-18z m7165 0 c205 -37 407 -112 563 -207 104 -64 271 -226 321 -311 27 -47
2956 -6944 3008 -7083 55 -149 -29 -328 -180 -384 -53 -19 -78 -21 -293 -21
-129 0 -278 5 -332 11 -560 61 -1028 334 -1308 764 -70 109 -90 150 -273 567
-87 200 -165 375 -172 391 l-12 27 -1650 -2 -1650 -3 -291 -697 c-160 -383
-294 -700 -298 -704 -4 -4 -61 23 -125 61 -410 236 -860 578 -1276 971 l-98
92 919 2189 c506 1203 1069 2544 1252 2978 182 435 350 821 372 859 45 77 155
198 238 261 166 126 409 221 655 254 110 15 524 7 630 -13z"/>
<path d="M28742 28052 c-330 -333 -519 -490 -914 -753 -320 -214 -619 -387
-1000 -579 -180 -91 -243 -128 -261 -152 -31 -41 -71 -120 -147 -292 -207
-469 -404 -781 -705 -1117 -59 -66 -109 -118 -111 -116 -2 2 16 83 41 179 66
260 88 431 82 636 -2 92 -10 184 -16 204 -16 49 -57 98 -84 98 -12 0 -94 -25
-182 -56 -88 -30 -326 -106 -530 -169 -417 -128 -534 -168 -671 -227 -218 -93
-295 -151 -354 -267 -85 -169 -187 -302 -421 -546 -74 -77 -155 -164 -180
-193 l-45 -52 19 87 c30 143 26 425 -9 606 -4 20 -10 26 -22 23 -41 -13 -281
-37 -467 -46 -624 -34 -1335 77 -2065 320 -442 147 -776 292 -1215 529 -204
110 -255 110 -199 0 63 -125 263 -360 558 -655 228 -227 376 -360 576 -515
715 -553 1510 -911 2340 -1053 1095 -187 2204 -6 3240 531 510 264 939 582
1386 1028 556 554 1006 1182 1339 1867 140 289 217 495 274 738 36 148 41 201
23 208 -8 2 -127 -111 -280 -266z"/>
<path d="M41790 21361 c-85 -27 -133 -56 -198 -116 -101 -93 -153 -192 -172
-327 -32 -224 89 -452 292 -552 310 -154 674 31 745 379 55 270 -117 551 -381
621 -73 19 -218 17 -286 -5z m294 -185 c101 -31 156 -103 156 -206 0 -70 -26
-127 -76 -168 l-39 -33 23 -42 c115 -208 115 -212 1 -212 l-74 0 -60 112 -60
113 -52 0 -53 0 0 -89 c0 -49 -4 -101 -10 -115 -9 -24 -14 -26 -78 -26 -40 0
-73 5 -80 12 -16 16 -17 620 -2 649 10 18 23 19 184 19 120 0 187 -4 220 -14z"/>
<path d="M41850 20970 l0 -80 89 0 c85 0 91 1 110 26 21 27 26 59 15 89 -12
29 -60 45 -139 45 l-75 0 0 -80z"/>
<path d="M16845 19259 c-245 -27 -477 -93 -692 -198 -675 -332 -1121 -971
-1248 -1791 -23 -143 -31 -569 -15 -726 104 -1034 752 -1842 1664 -2075 227
-58 586 -77 843 -44 471 61 900 277 1239 626 365 377 591 884 654 1474 14 130
14 483 0 620 -68 668 -360 1253 -811 1626 -310 257 -629 404 -1019 471 -135
23 -473 32 -615 17z"/>
<path d="M23865 19309 c-55 -5 -127 -12 -160 -16 l-60 -8 -3 -1206 -2 -1206
82 -7 c643 -50 843 -49 1133 9 284 57 511 144 700 270 395 263 569 721 456
1199 -125 526 -572 866 -1254 952 -146 18 -740 27 -892 13z"/>
<path d="M30605 19309 c-55 -5 -127 -12 -160 -16 l-60 -8 -3 -1208 -2 -1207
27 0 c16 0 107 -7 203 -15 262 -23 593 -30 740 -16 278 27 576 105 765 202
281 145 435 289 555 520 137 265 155 584 51 892 -157 465 -590 763 -1224 843
-146 18 -741 27 -892 13z"/>
<path d="M37542 17332 c-276 -664 -502 -1210 -502 -1214 0 -5 461 -8 1025 -8
564 0 1025 3 1025 7 0 21 -1026 2423 -1035 2423 -5 0 -236 -543 -513 -1208z"/>
</g>
</svg>
